<svg width="35" height="35" viewBox="0 0 35 35" fill="none" xmlns="http://www.w3.org/2000/svg">
<path fill-rule="evenodd" clip-rule="evenodd" d="M1.31357 7.57297C1.45926 7.56179 1.59506 7.49497 1.6928 7.38637C1.79055 7.27776 1.84275 7.1357 1.83857 6.98964V3.76672C1.86774 3.26943 1.96982 2.77797 2.14482 2.30839V2.19318V2.30985C3.73372 1.89014 5.37242 1.68898 7.01566 1.71193C7.10853 1.7272 7.20365 1.72137 7.29396 1.69487C7.38428 1.66837 7.46747 1.62188 7.53736 1.55885C7.60726 1.49582 7.66207 1.41786 7.69773 1.33075C7.73339 1.24365 7.74899 1.14964 7.74337 1.05568C7.74735 0.891797 7.687 0.732866 7.57525 0.612931C7.46349 0.492995 7.30921 0.421593 7.14545 0.414016C5.49877 0.137788 3.82655 0.0448602 2.15941 0.136933C1.80312 0.166342 1.45845 0.277737 1.15234 0.462414C0.846237 0.64709 0.586977 0.900046 0.394823 1.20152C0.120657 1.83006 -0.01351 2.51256 0.00107334 3.19943C0.141073 4.50027 0.38899 5.78798 0.744823 7.04798C0.752379 7.19239 0.816089 7.32814 0.922353 7.42622C1.02862 7.52431 1.16901 7.57698 1.31357 7.57297ZM7.10316 33.3315C5.45992 33.3545 3.82122 33.1533 2.23232 32.7336C2.05732 32.2669 1.95524 31.774 1.92607 31.2753V28.0538C1.93025 27.9078 1.87805 27.7657 1.7803 27.6571C1.68256 27.5485 1.54676 27.4817 1.40107 27.4705C1.25651 27.4665 1.11612 27.5191 1.00985 27.6172C0.903589 27.7153 0.839879 27.8511 0.832323 27.9955C0.449618 29.2388 0.171566 30.512 0.00107334 31.8017C-0.01351 32.4871 0.120657 33.1696 0.394823 33.7982C0.586977 34.0997 0.846237 34.3526 1.15234 34.5373C1.45845 34.722 1.80312 34.8334 2.15941 34.8628C3.82628 34.9546 5.49899 34.8613 7.14691 34.5857C7.31322 34.5857 7.47272 34.5196 7.59032 34.402C7.70792 34.2844 7.77399 34.1249 7.77399 33.9586C7.77399 33.7923 7.70792 33.6328 7.59032 33.5152C7.47272 33.3976 7.31322 33.3315 7.14691 33.3315H7.10316ZM27.8902 1.66818C29.5323 1.64485 31.1715 1.8461 32.7596 2.2661C32.9448 2.73131 33.0542 3.22422 33.0805 3.72443V6.94589C33.0763 7.09195 33.1285 7.23401 33.2262 7.34262C33.324 7.45122 33.4598 7.51804 33.6054 7.52923C33.75 7.53323 33.8904 7.48056 33.9967 7.38247C34.1029 7.28438 34.1666 7.14864 34.1742 7.00422C34.5524 5.75881 34.8241 4.49006 34.9894 3.19797C35.0055 2.51256 34.8727 1.83006 34.5957 1.20152C34.4035 0.900046 34.1442 0.64709 33.8381 0.462414C33.532 0.277737 33.1874 0.166342 32.8311 0.136933C31.1644 0.0449683 29.4927 0.137896 27.8465 0.414016C27.6802 0.419818 27.523 0.491449 27.4095 0.613153C27.296 0.734856 27.2355 0.896662 27.2413 1.06297C27.2471 1.22929 27.3187 1.38648 27.4404 1.49998C27.5621 1.61348 27.7239 1.67398 27.8902 1.66818ZM33.6769 27.4282C33.5312 27.4394 33.3954 27.5062 33.2977 27.6148C33.1999 27.7234 33.1477 27.8655 33.1519 28.0115V31.233C33.1265 31.7335 33.0181 32.2263 32.8311 32.6913C31.243 33.1103 29.6054 33.3109 27.9632 33.2878C27.7968 33.2878 27.6373 33.3538 27.5197 33.4714C27.4021 33.589 27.3361 33.7485 27.3361 33.9149C27.3361 34.0812 27.4021 34.2407 27.5197 34.3583C27.6373 34.4759 27.7968 34.5419 27.9632 34.5419C29.6094 34.8181 31.2811 34.911 32.9477 34.819C33.304 34.7896 33.6487 34.6782 33.9548 34.4935C34.2609 34.3089 34.5202 34.0559 34.7123 33.7544C34.9427 33.1303 35.0361 32.4638 34.9894 31.8003C34.8499 30.4988 34.6011 29.2114 34.2457 27.9517C34.2381 27.8073 34.1744 27.6716 34.0681 27.5735C33.9619 27.4754 33.8215 27.4227 33.6769 27.4267M11.0815 9.93402L12.1898 10.6194C12.292 10.7209 12.426 10.7842 12.5693 10.7985C12.7126 10.8129 12.8564 10.7775 12.9767 10.6983C13.097 10.6191 13.1863 10.5009 13.2297 10.3636C13.2731 10.2262 13.2679 10.0782 13.215 9.94422C13.1843 9.8689 13.1381 9.80084 13.0794 9.74443L12.0002 8.60693C11.5274 8.15977 10.9794 7.7994 10.3815 7.54235C10.0169 7.37857 9.62179 7.29389 9.22212 7.29389C8.82245 7.29389 8.42731 7.37857 8.06274 7.54235C7.68473 7.73232 7.3443 7.98926 7.05795 8.30068C6.51077 8.91465 6.02252 9.57868 5.59962 10.284C5.5053 10.3907 5.45323 10.5281 5.45323 10.6705C5.45323 10.8128 5.5053 10.9503 5.59962 11.0569C5.70552 11.1585 5.8466 11.2153 5.99337 11.2153C6.14013 11.2153 6.28121 11.1585 6.38712 11.0569C7.11308 10.3994 7.95333 9.88045 8.86628 9.52568C9.16598 9.43611 9.48533 9.43611 9.78503 9.52568C10.2327 9.60152 10.6688 9.7386 11.0815 9.93402ZM29.1575 10.6778C29.2692 10.5566 29.3313 10.3978 29.3313 10.233C29.3313 10.0682 29.2692 9.90937 29.1575 9.78818L28.0784 8.66527C27.6059 8.21825 27.0585 7.85789 26.4611 7.60068C26.0971 7.4442 25.7051 7.3635 25.309 7.3635C24.9128 7.3635 24.5208 7.4442 24.1569 7.60068C23.7719 7.78621 23.4259 8.04361 23.1375 8.35902C22.5964 8.97784 22.1085 9.64132 21.6792 10.3424C21.5776 10.4483 21.5209 10.5893 21.5209 10.7361C21.5209 10.8829 21.5776 11.0239 21.6792 11.1299C21.7295 11.1814 21.7896 11.2224 21.8559 11.2504C21.9223 11.2784 21.9936 11.2929 22.0657 11.2929C22.1377 11.2929 22.209 11.2784 22.2754 11.2504C22.3417 11.2224 22.4018 11.1814 22.4521 11.1299C23.1788 10.4732 24.0123 9.94551 24.9167 9.56943C25.2214 9.48031 25.5453 9.48031 25.85 9.56943C26.2977 9.66277 26.7338 9.8086 27.1465 10.0069L28.2548 10.7069C28.3788 10.8225 28.5435 10.8843 28.7129 10.8788C28.8823 10.8733 29.0412 10.8011 29.1575 10.6778ZM16.8113 19.8769C17.0398 20.1341 17.3173 20.3429 17.6277 20.4913C17.938 20.6396 18.2749 20.7244 18.6185 20.7408C18.9621 20.7571 19.3055 20.7045 19.6285 20.5862C19.9515 20.4679 20.2476 20.2863 20.4994 20.0519C20.7872 19.8575 21.0594 19.6436 21.3161 19.4103C21.564 19.1808 21.7973 18.9378 22.0161 18.6811C22.1268 18.5623 22.1883 18.406 22.1883 18.2436C22.1883 18.0812 22.1268 17.9249 22.0161 17.8061C21.899 17.6921 21.742 17.6283 21.5786 17.6283C21.4151 17.6283 21.2582 17.6921 21.1411 17.8061C20.935 18.0015 20.7162 18.1814 20.4848 18.3457C20.2661 18.5071 20.0327 18.6432 19.7848 18.754C19.6045 18.8678 19.4032 18.9444 19.1929 18.9795C18.9825 19.0145 18.7673 19.0073 18.5598 18.9582C18.239 18.8415 18.1369 18.4769 17.9911 18.0832C17.7707 17.2648 17.6532 16.4222 17.6411 15.5749V11.2917C17.714 10.6063 17.7577 9.97923 17.8452 9.36672C17.8968 8.95353 17.9745 8.5452 18.0786 8.14173C18.1188 8.00609 18.1049 7.86015 18.0398 7.73456C17.9747 7.60896 17.8634 7.51349 17.7294 7.46819C17.5954 7.42288 17.449 7.43128 17.321 7.49161C17.1931 7.55194 17.0935 7.65951 17.0432 7.79172L16.0369 11.0001L15.6723 12.6771C15.4653 14.0815 15.4359 15.5063 15.5848 16.918C15.6942 18.0044 16.12 19.0326 16.8098 19.8784M24.4209 22.5296C24.2507 22.8067 24.0563 23.0644 23.8375 23.3026C23.4593 23.6798 23.0607 24.0346 22.6417 24.3671C22.2824 24.664 21.9076 24.9414 21.5188 25.1984C21.1668 25.4444 20.7877 25.6383 20.3813 25.7803C19.0568 26.2788 17.5962 26.2788 16.2717 25.7803C14.055 24.9755 12.0187 23.7416 10.2794 22.149C10.176 22.0484 10.0373 21.992 9.89295 21.992C9.7486 21.992 9.60995 22.0484 9.50649 22.149C9.40912 22.2542 9.35503 22.3922 9.35503 22.5355C9.35503 22.6788 9.40912 22.8168 9.50649 22.9219C11.1351 24.9755 13.2224 26.6187 15.6009 27.7199C16.4984 28.0538 17.454 28.204 18.4107 28.1614C19.3675 28.1188 20.3059 27.8844 21.1702 27.4719C21.5737 27.261 21.9577 27.0179 22.3223 26.7428C22.8104 26.3442 23.2668 25.9115 23.6917 25.4449C24.1166 25.0268 24.5152 24.5844 24.8875 24.1178C25.1568 23.7736 25.3756 23.3993 25.5438 22.9949C25.6132 22.844 25.62 22.6717 25.5626 22.5159C25.5051 22.3601 25.3883 22.2334 25.2375 22.1636C25.1605 22.1288 25.077 22.1106 24.9925 22.1104C24.908 22.1102 24.8244 22.1279 24.7473 22.1623C24.6701 22.1968 24.6011 22.2472 24.5448 22.3103C24.4886 22.3733 24.4463 22.4476 24.4209 22.5282" fill="black" fill-opacity="0.53"/>
</svg>
